<svg xmlns="http://www.w3.org/2000/svg" viewBox="0 0 1200 630">
  <defs>
    <pattern id="fineGrid" width="16" height="16" patternUnits="userSpaceOnUse">
      <path d="M 16 0 L 0 0 0 16" fill="none" stroke="#eaf2ff" stroke-opacity="0.08" stroke-width="1"/>
    </pattern>
    <pattern id="coarseGrid" width="80" height="80" patternUnits="userSpaceOnUse">
      <path d="M 80 0 L 0 0 0 80" fill="none" stroke="#eaf2ff" stroke-opacity="0.16" stroke-width="1"/>
    </pattern>
  </defs>

  <rect width="1200" height="630" fill="#0f3f78"/>
  <rect width="1200" height="630" fill="url(#fineGrid)"/>
  <rect width="1200" height="630" fill="url(#coarseGrid)"/>
  <rect x="24" y="24" width="1152" height="582" fill="none" stroke="#eaf2ff" stroke-opacity="0.5" stroke-width="2"/>

  <!-- Folio -->
  <text x="56" y="70" font-family="'IBM Plex Mono', ui-monospace, monospace" font-size="18" letter-spacing="3" fill="#bcd6f5">PATENT NO. SN-2026 &#8212; SHEET 1 OF 9</text>
  <text x="1144" y="70" font-family="'IBM Plex Mono', ui-monospace, monospace" font-size="18" letter-spacing="3" fill="#bcd6f5" text-anchor="end">FIG. 04</text>

  <!-- Title block -->
  <text x="56" y="300" font-family="'IBM Plex Sans', system-ui, sans-serif" font-size="84" font-weight="700" letter-spacing="-1" fill="#eaf2ff">SURAJ NANDAN</text>
  <rect x="58" y="330" width="480" height="5" fill="#c9a24a"/>
  <text x="56" y="390" font-family="'IBM Plex Mono', ui-monospace, monospace" font-size="28" letter-spacing="1" fill="#eaf2ff" opacity="0.85">FULL-STACK DEVELOPER &#8212; INVENTOR&#8217;S DISCLOSURE</text>
  <text x="56" y="432" font-family="'IBM Plex Mono', ui-monospace, monospace" font-size="20" letter-spacing="2" fill="#bcd6f5">U-04 &#8212; BLUEPRINT / PATENT UNIVERSE</text>

  <!-- Schematic mark -->
  <g transform="translate(940,150)" fill="none" stroke="#eaf2ff" stroke-width="2.5">
    <circle cx="120" cy="90" r="66"/>
    <path d="M120 24c-24 0-42 18-42 42 0 17 11 27 17 36 4 6 5 11 5 17h40c0-6 1-11 5-17 6-9 17-19 17-36 0-24-18-42-42-42z" opacity="0.9"/>
    <path d="M98 90h44M102 100h36M108 110c4 5 20 5 24 0" opacity="0.75"/>
    <line x1="186" y1="60" x2="222" y2="34" opacity="0.6"/>
    <circle cx="228" cy="30" r="10" fill="#0f3f78" stroke="#c9a24a"/>
    <text x="228" y="35" font-family="'IBM Plex Mono', monospace" font-size="12" fill="#c9a24a" text-anchor="middle" stroke="none">1</text>
  </g>

  <text x="56" y="560" font-family="'IBM Plex Mono', ui-monospace, monospace" font-size="16" letter-spacing="2" fill="#bcd6f5" opacity="0.8">SCALE 1:4 &#8212; REV. A &#8212; ALL DIMENSIONS IN PIXELS</text>
</svg>
