<svg xmlns="http://www.w3.org/2000/svg" viewBox="0 0 1200 630">
  <defs>
    <linearGradient id="sun" x1="0%" y1="0%" x2="0%" y2="100%">
      <stop offset="0%" stop-color="#ffd15e"/>
      <stop offset="55%" stop-color="#ff5ea8"/>
      <stop offset="100%" stop-color="#c23fda"/>
    </linearGradient>
    <linearGradient id="grid-cyan" x1="0%" y1="0%" x2="100%" y2="0%">
      <stop offset="0%" stop-color="#5eecff" stop-opacity="0.6"/>
      <stop offset="100%" stop-color="#ff5ea8" stop-opacity="0.5"/>
    </linearGradient>
  </defs>

  <rect width="1200" height="630" fill="#0b0416"/>
  <circle cx="600" cy="230" r="110" fill="url(#sun)" opacity="0.9"/>

  <g opacity="0.55">
    <line x1="0" y1="430" x2="1200" y2="430" stroke="url(#grid-cyan)" stroke-width="2"/>
    <line x1="0" y1="480" x2="1200" y2="480" stroke="url(#grid-cyan)" stroke-width="2"/>
    <line x1="0" y1="540" x2="1200" y2="540" stroke="url(#grid-cyan)" stroke-width="2"/>
    <line x1="0" y1="610" x2="1200" y2="610" stroke="url(#grid-cyan)" stroke-width="2"/>
    <line x1="600" y1="430" x2="60" y2="630" stroke="url(#grid-cyan)" stroke-width="2"/>
    <line x1="600" y1="430" x2="300" y2="630" stroke="url(#grid-cyan)" stroke-width="2"/>
    <line x1="600" y1="430" x2="600" y2="630" stroke="url(#grid-cyan)" stroke-width="2"/>
    <line x1="600" y1="430" x2="900" y2="630" stroke="url(#grid-cyan)" stroke-width="2"/>
    <line x1="600" y1="430" x2="1140" y2="630" stroke="url(#grid-cyan)" stroke-width="2"/>
  </g>

  <text x="600" y="300" font-family="'Orbitron', system-ui, sans-serif" font-size="58" font-weight="800" fill="#e8f9ff" text-anchor="middle" letter-spacing="4">SURAJ NANDAN</text>
  <text x="600" y="345" font-family="'JetBrains Mono', monospace" font-size="20" fill="#7bf0ff" text-anchor="middle" letter-spacing="3">&gt; FULL_STACK_DEVELOPER.exe</text>

  <rect x="420" y="380" width="360" height="44" rx="4" fill="#0b0416" stroke="#5eecff" stroke-opacity="0.5"/>
  <text x="600" y="407" font-family="'JetBrains Mono', monospace" font-size="16" fill="#ff5ea8" text-anchor="middle" letter-spacing="2">U-02 :: NEON DEV-TERMINAL</text>
</svg>
